<svg width="25" height="25" viewBox="0 0 25 25" fill="none" xmlns="http://www.w3.org/2000/svg">
<path fill-rule="evenodd" clip-rule="evenodd" d="M22.2832 12.2617C22.2832 17.7845 17.806 22.2617 12.2832 22.2617C6.76035 22.2617 2.2832 17.7845 2.2832 12.2617C2.2832 6.73887 6.76035 2.26172 12.2832 2.26172C17.806 2.26172 22.2832 6.73887 22.2832 12.2617ZM12.2832 18.0117C12.6974 18.0117 13.0332 17.6759 13.0332 17.2617V11.2617C13.0332 10.8475 12.6974 10.5117 12.2832 10.5117C11.869 10.5117 11.5332 10.8475 11.5332 11.2617V17.2617C11.5332 17.6759 11.869 18.0117 12.2832 18.0117ZM12.2832 7.26172C12.8355 7.26172 13.2832 7.70944 13.2832 8.26172C13.2832 8.814 12.8355 9.26172 12.2832 9.26172C11.7309 9.26172 11.2832 8.814 11.2832 8.26172C11.2832 7.70944 11.7309 7.26172 12.2832 7.26172Z" fill="#1C274C"/>
</svg>
