<svg width="39" height="40" viewBox="0 0 39 40" fill="none" xmlns="http://www.w3.org/2000/svg">
<path fill-rule="evenodd" clip-rule="evenodd" d="M23.1512 0.30448C22.3911 8.9407e-08 21.4274 0 19.5 0C17.5726 0 16.6088 8.9407e-08 15.8488 0.30448C14.8352 0.71046 14.0299 1.48916 13.6101 2.46926C13.4184 2.91668 13.3434 3.437 13.3141 4.19598C13.2709 5.31136 12.6794 6.34378 11.6798 6.90186C10.6802 7.45992 9.45982 7.43908 8.43936 6.91752C7.74494 6.5626 7.24145 6.36524 6.74492 6.30204C5.65723 6.16356 4.5572 6.44858 3.68685 7.0944C3.03407 7.57876 2.55221 8.3858 1.58853 9.99986C0.624836 11.6139 0.143002 12.421 0.0356084 13.2098C-0.107604 14.2616 0.187154 15.3253 0.855018 16.167C1.15985 16.5512 1.58826 16.874 2.25317 17.278C3.23065 17.872 3.8596 18.8838 3.85953 20C3.85947 21.1162 3.23055 22.1278 2.25317 22.7216C1.58816 23.1258 1.15967 23.4488 0.854813 23.833C0.186949 24.6746 -0.107788 25.7382 0.0354034 26.79C0.142797 27.5788 0.624651 28.386 1.58832 30C2.55201 31.614 3.03386 32.4212 3.68664 32.9054C4.557 33.5512 5.65702 33.8362 6.74471 33.6978C7.24122 33.6346 7.74467 33.4372 8.43903 33.0824C9.45958 32.5608 10.68 32.54 11.6797 33.098C12.6794 33.6562 13.2709 34.6886 13.3141 35.8042C13.3434 36.563 13.4184 37.0834 13.6101 37.5308C14.0299 38.5108 14.8352 39.2896 15.8488 39.6956C16.6088 40 17.5726 40 19.5 40C21.4274 40 22.3911 40 23.1512 39.6956C24.1648 39.2896 24.97 38.5108 25.3898 37.5308C25.5815 37.0834 25.6566 36.563 25.686 35.804C25.7291 34.6886 26.3205 33.6562 27.3201 33.098C28.3197 32.5398 29.5402 32.5608 30.5608 33.0824C31.2552 33.4372 31.7585 33.6344 32.255 33.6976C33.3427 33.8362 34.4427 33.5512 35.313 32.9054C35.966 32.421 36.4477 31.614 37.4114 29.9998C38.3751 28.3858 38.8569 27.5788 38.9644 26.79C39.1075 25.7382 38.8128 24.6744 38.145 23.8328C37.84 23.4486 37.4116 23.1256 36.7466 22.7216C35.7693 22.1278 35.1404 21.116 35.1404 19.9998C35.1404 18.8836 35.7693 17.8722 36.7466 17.2784C37.4118 16.8742 37.8402 16.5514 38.1452 16.167C38.813 15.3255 39.1077 14.2617 38.9646 13.2099C38.8571 12.4211 38.3753 11.6141 37.4116 10C36.4479 8.38594 35.9662 7.5789 35.3132 7.09454C34.4429 6.44872 33.3429 6.1637 32.2552 6.30218C31.7587 6.36538 31.2552 6.56272 30.561 6.9176C29.5404 7.43918 28.3199 7.46004 27.3203 6.90192C26.3207 6.34382 25.7291 5.31132 25.6858 4.19588C25.6564 3.43696 25.5815 2.91666 25.3898 2.46926C24.97 1.48916 24.1648 0.71046 23.1512 0.30448ZM19.5 26C22.9268 26 25.7047 23.3138 25.7047 20C25.7047 16.6862 22.9268 14 19.5 14C16.0731 14 13.2952 16.6862 13.2952 20C13.2952 23.3138 16.0731 26 19.5 26Z" fill="#667699"/>
</svg>
